<?xml version="1.0" encoding="UTF-8" standalone="no"?>
<!-- Created with Inkscape (http://www.inkscape.org/) -->

<svg
   width="210mm"
   height="297mm"
   viewBox="0 0 210 297"
   version="1.1"
   id="svg208"
   inkscape:version="1.2.2 (732a01da63, 2022-12-09)"
   sodipodi:docname="bulb-before.svg"
   xmlns:inkscape="http://www.inkscape.org/namespaces/inkscape"
   xmlns:sodipodi="http://sodipodi.sourceforge.net/DTD/sodipodi-0.dtd"
   xmlns="http://www.w3.org/2000/svg"
   xmlns:svg="http://www.w3.org/2000/svg">
  <sodipodi:namedview
     id="namedview210"
     pagecolor="#ffffff"
     bordercolor="#000000"
     borderopacity="0.25"
     inkscape:showpageshadow="2"
     inkscape:pageopacity="0.0"
     inkscape:pagecheckerboard="0"
     inkscape:deskcolor="#d1d1d1"
     inkscape:document-units="mm"
     showgrid="false"
     inkscape:zoom="0.77233135"
     inkscape:cx="453.17337"
     inkscape:cy="502.37505"
     inkscape:window-width="1366"
     inkscape:window-height="715"
     inkscape:window-x="-8"
     inkscape:window-y="22"
     inkscape:window-maximized="1"
     inkscape:current-layer="layer1" />
  <defs
     id="defs205" />
  <g
     inkscape:label="Layer 1"
     inkscape:groupmode="layer"
     id="layer1">
    <path
       d="m 104.36651,60.00224 c 4.70115,0 9.23258,0.546267 13.59429,1.638792 4.36206,1.092514 8.43319,2.643912 12.21339,4.654162 3.82871,2.01026 7.29391,4.413807 10.39571,7.21069 3.10191,2.796853 5.76749,5.921486 7.99663,9.37388 2.22936,3.408677 3.94992,7.079496 5.16156,11.012744 1.21197,3.932983 1.81757,8.019012 1.81757,12.258072 0,6.33659 -1.33285,12.21457 -3.99843,17.63344 -2.66569,5.41886 -6.46998,10.33534 -11.41355,14.74894 -4.02251,3.58367 -7.12442,7.58215 -9.30527,11.99602 -2.13236,4.41386 -3.1987,9.19906 -3.1987,14.35586 v 16.78121 c 0,1.74794 -0.36351,3.38686 -1.09054,4.9165 -0.72703,1.52937 -1.72045,2.86221 -2.9807,3.99849 -1.26015,1.13629 -2.73829,2.03201 -4.43431,2.68768 -1.69647,0.65546 -3.51404,0.98324 -5.45248,0.98324 H 95.061011 c -1.93844,0 -3.75601,-0.32788 -5.452482,-0.98324 -1.696023,-0.65566 -3.174162,-1.55139 -4.434306,-2.68768 -1.260144,-1.13628 -2.25356,-2.46912 -2.980701,-3.99849 -0.727027,-1.52964 -1.090541,-3.16856 -1.090541,-4.9165 v -16.78121 c 0,-5.1568 -1.090541,-9.942 -3.271287,-14.35586 -2.132689,-4.41387 -5.210064,-8.41235 -9.232687,-11.99602 -4.943563,-4.4136 -8.747853,-9.33008 -11.413659,-14.74894 -2.66558,-5.41887 -3.998314,-11.29685 -3.998314,-17.63344 0,-4.23906 0.605481,-8.325089 1.817457,-12.258072 1.211637,-3.933248 2.932082,-7.604067 5.161671,-11.012744 2.229138,-3.452394 4.894719,-6.577027 7.996628,-9.37388 3.101909,-2.796883 6.542911,-5.20043 10.323117,-7.21069 3.828712,-2.01025 7.923925,-3.561648 12.285978,-4.654162 4.361716,-1.092525 8.893145,-1.638792 13.594405,-1.638792 z m 9.30528,125.85912 c 1.26015,0 2.35057,-0.41515 3.27129,-1.24557 0.9206,-0.83021 1.38135,-1.81344 1.38135,-2.94974 v -12.5859 H 90.408484 v 12.5859 c 0,1.1363 0.460301,2.11954 1.381353,2.94974 0.920601,0.83051 2.011143,1.24557 3.271286,1.24557 z m 4.87064,-25.17182 c 0.63024,-5.63742 2.22936,-10.75045 4.79827,-15.33911 2.56856,-4.58866 6.03365,-8.87123 10.3957,-12.84797 4.02263,-3.67092 7.1,-7.66968 9.23269,-11.99601 2.18086,-4.3701 3.27129,-9.15557 3.27129,-14.35587 0,-5.20029 -1.11418,-10.095034 -3.34399,-14.683427 -2.1812,-4.588656 -5.16156,-8.587389 -8.94199,-11.996075 -3.78021,-3.408677 -8.21485,-6.096306 -13.30382,-8.062849 -5.08852,-2.01025 -10.51691,-3.01538 -16.28407,-3.01538 -5.767261,0 -11.195546,1.00516 -16.284177,3.01538 -5.088855,1.966543 -9.523611,4.654172 -13.303817,8.062849 -3.780431,3.408686 -6.785216,7.407419 -9.014692,11.996075 -2.180858,4.588393 -3.271287,9.483137 -3.271287,14.683427 0,5.2003 1.066908,9.98577 3.198697,14.35587 2.180858,4.32633 5.282767,8.32509 9.305278,11.99601 4.362053,3.97674 7.827139,8.25931 10.395707,12.84797 2.568906,4.58866 4.168254,9.70169 4.798269,15.33911 z"
       fill="#444444"
       id="path2"
       style="stroke-width:2.82756" />
  </g>
</svg>
